<svg width="239" height="222" viewBox="0 0 239 222" fill="none" xmlns="http://www.w3.org/2000/svg">
<path d="M236.824 209.652C234.859 208.581 217.163 191.192 200.748 191.192C192.216 191.192 185.524 193.768 179.624 196.038C173.64 198.342 167.99 200.519 159.812 200.519C150.28 200.519 142.367 197.611 135.38 195.046C129.75 192.978 124.885 191.191 119.91 191.191C114.936 191.191 110.073 192.978 104.442 195.046C97.4599 197.611 89.5453 200.519 80.012 200.519C71.8334 200.519 66.1818 198.342 60.1985 196.038C54.298 193.768 47.6066 191.192 39.0731 191.192C22.6606 191.192 4.9632 208.581 3 209.652C3 209.652 10.5317 205.183 16.7934 205.183C23.0551 205.183 29.201 209.845 39.074 209.845C44.1417 209.845 48.2694 211.435 53.4988 213.449C60.1229 215.999 68.366 219.173 80.0131 219.173C92.8633 219.173 103.274 215.351 110.875 212.56C114.336 211.286 118.255 209.845 119.911 209.845C121.573 209.845 125.49 211.286 128.95 212.56C136.551 215.351 146.96 219.173 159.813 219.173C171.457 219.173 179.702 215.999 186.327 213.449C191.552 211.435 195.683 209.845 200.749 209.845C210.624 209.845 214.696 205.183 223.031 205.183C231.431 205.183 236.906 209.651 236.906 209.651L236.824 209.652Z" fill="white" stroke="#20201E" stroke-width="4.1522" stroke-linecap="round" stroke-linejoin="round"/>
<path d="M163.3 83.8051C154.015 53.5086 129.505 23.8501 107.891 19.9332C111.103 18.6229 113.365 15.4705 113.365 11.793C113.365 6.9354 109.429 3 104.572 3C99.7158 3 95.7772 6.9358 95.7772 11.793C95.7772 15.2232 97.7481 18.1912 100.616 19.6397C99.1246 19.8025 97.6606 20.1128 96.229 20.5859C77.0545 26.8966 52.4984 69.2937 52.4984 102.979C52.4984 127.825 62.565 149.23 74.1831 164.724L158.634 164.122C166.625 150.782 176.409 126.62 163.29 83.7991L163.3 83.8051Z" fill="white" stroke="#20201E" stroke-width="4.1522"/>
<path d="M158.361 199.364C147.749 194.496 132.716 191.031 117.628 191.031C102.534 191.031 88.404 194.103 75.7287 199.676C88.4036 205.246 102.298 208.486 117.389 208.486C132.49 208.486 145.704 204.931 158.383 199.362L158.361 199.364Z" fill="white" stroke="black" stroke-width="3.1886" stroke-linejoin="bevel"/>
<path d="M153.956 170.011L153.948 170C143.667 165.581 131.838 161.875 116.535 161.875C101.218 161.875 89.4065 165.584 79.1219 170.011C79.1219 170.011 76.8176 184.979 76.5949 188.359C76.2477 193.541 75.727 199.671 75.727 199.671C88.4019 194.098 102.532 191.026 117.627 191.026C132.424 191.026 145.865 193.986 158.359 199.36C157.91 195.212 157.391 191.067 156.356 184.849C155.789 181.545 153.933 169.968 153.933 169.968L153.956 170.011Z" fill="white" stroke="#20201E" stroke-width="4.1522" stroke-linejoin="bevel"/>
<path d="M75.7129 199.679C88.3878 194.105 102.518 191.033 117.613 191.033C132.41 191.033 145.851 193.993 158.345 199.367C158.024 195.897 157.256 193.734 156.772 189.305C144.217 184.907 131.488 182.663 117.418 182.663C103.188 182.663 89.0873 185.247 76.4114 189.74C76.3485 193.641 75.6878 199.682 75.6878 199.682L75.7129 199.679Z" fill="white" stroke="#20201E" stroke-width="4.1522" stroke-linejoin="bevel"/>
<path d="M79.1107 170.011C89.394 165.587 101.216 161.799 116.537 161.7C129.58 161.614 143.67 165.581 153.953 170.005C154.517 169.439 156.906 168.714 158.635 164.115C149.988 154.753 137.132 149.864 116.538 149.864C94.5625 149.864 82.8304 155.343 74.1849 164.717C75.8838 169.31 78.5265 169.436 79.0928 170.002L79.1107 170.011Z" fill="white" stroke="#20201E" stroke-width="4.1522"/>
<path d="M116.549 149.876V161.706" stroke="black" stroke-width="3.1886"/>
<path d="M138.414 86.6083L134.293 90.7297H113.592V72.0608L117.713 67.9394L109.408 59.64L101.102 67.9394L105.255 72.1048V90.7297H84.4591L80.3377 86.6083L72.032 94.914L80.3377 103.22L84.4906 99.0668H105.255V121.876L101.102 126.029L109.408 134.335L117.713 126.029L113.592 121.907V99.0668H134.262L138.414 103.22L146.72 94.914L138.414 86.6083Z" fill="white" stroke="black" stroke-width="2.4221"/>
</svg>
