<svg width="216" height="203" viewBox="0 0 216 203" fill="none" xmlns="http://www.w3.org/2000/svg">
    <path d="M161.104 25.1847C161.104 25.1847 157.614 6.42959 157.614 3.81009C157.614 1.19549 155 0.759291 152.382 4.24939C149.764 7.73959 137.989 24.7481 137.989 24.7481L161.082 25.1571L161.104 25.1847Z"
          fill="#20201E" stroke="#20201E" stroke-width="2.684"/>
    <path d="M4.62723 169.055C5.81163 160.597 7.42762 152.535 9.39542 144.867L15.7168 142.344L11.4954 137.299C13.901 129.189 16.6953 121.557 19.7646 114.381L25.7434 112.688L22.7894 107.633C26.0016 100.806 29.4535 94.44 33.0356 88.5121L38.6105 87.3922L36.612 82.7882C40.6277 76.5914 44.7538 70.9318 48.8491 65.7949L54.7496 65.1482L53.1735 60.5521C57.9603 54.9282 62.6272 50.0353 66.9452 45.8555L72.8504 45.5237L71.8196 41.2947C82.3486 31.7674 89.7882 27.131 89.7882 27.131L103.164 31.2005C103.164 31.2005 109.559 27.7102 114.794 24.2231C114.794 24.2231 118.281 12.5927 119.444 6.19437C120.609 -0.200727 124.096 2.70728 125.259 4.45078C126.425 6.19438 138.49 19.5715 138.49 19.5715C138.49 19.5715 145.707 18.5807 150.845 19.5715C158.403 21.0263 161.895 26.1141 170.619 34.4018C176.98 40.4435 180.796 45.7434 182.976 51.4102C185.156 57.0801 182.543 57.0801 183.41 62.3123C184.286 67.5477 207.837 106.798 210.452 111.596C213.074 116.392 219.389 131.068 206.965 140.381C203.478 143.001 200.855 144.307 198.678 145.18C198.678 145.18 195.188 144.307 193.883 142.565C193.649 142.252 193.529 142.061 193.472 141.957C193.429 141.834 193.408 141.834 193.472 141.957C193.606 142.298 193.91 143.573 192.572 145.18C190.392 147.8 187.59 147.604 186.028 147.8C183.704 148.089 179.488 146.052 175.998 140.82C172.506 135.582 170.327 133.839 167.71 130.786C165.096 127.735 150.661 120.979 145.029 111.596C143.721 109.421 140.669 110.29 138.489 112.034C136.309 113.78 124.095 114.216 118.863 105.491C118.863 105.491 116.39 128.432 126.714 144.307C143.722 170.475 172.506 177.014 181.233 201.444H2.30862C2.30862 193.001 2.75252 184.902 3.55902 177.107L9.50391 173.964L4.52682 169.056L4.62723 169.055Z"
          fill="#20201E" stroke="#20201E" stroke-width="2.684"/>
    <path d="M96.7668 37.014C96.7668 37.014 20.5905 94.0086 20.5905 196.933" stroke="white" stroke-width="2.684"/>
    <path d="M193.478 141.275C193.415 141.181 193.415 141.181 193.478 141.275V141.275Z" stroke="#20201E"
          stroke-width="2.684"/>
    <path d="M112.466 76.5602C111.014 92.8406 118.575 104.47 118.864 105.488C118.864 105.488 100.544 96.042 98.7986 83.5344"
          stroke="white" stroke-width="2.684"/>
    <path d="M118.852 105.473C118.852 105.473 106.64 111.436 97.6269 107.656" stroke="white" stroke-width="2.684"/>
    <path d="M193.887 141.905C193.887 141.905 185.743 131.431 183.415 126.635" stroke="#20201E" stroke-width="2.684"/>
    <path d="M143.707 45.2881C143.707 45.2881 157.117 45.3557 161.589 52.7003C167.695 62.7345 160.718 64.0405 160.718 64.0405C160.718 64.0405 153.739 66.2249 148.942 59.681C143.834 52.7159 148.069 48.3409 148.069 48.3409L143.728 45.2892L143.707 45.2881Z"
          stroke="white" stroke-width="2.684"/>
    <path d="M208.705 119.221C203.906 117.915 200.853 118.346 198.677 119.661C198.677 119.661 200.853 113.115 196.933 107.445C193.004 101.775 186.461 101.34 180.794 90.4366"
          stroke="white" stroke-width="2.684"/>
    <path d="M81.351 51.4231L73.0767 46.1691" stroke="white" stroke-width="2.684"/>
    <path d="M64.3432 70.1738L56.0564 66.2411" stroke="white" stroke-width="2.684"/>
    <path d="M49.0815 91.9131L39.4859 87.9805" stroke="white" stroke-width="2.684"/>
    <path d="M36.8621 116.83L26.8386 113.338" stroke="white" stroke-width="2.684"/>
    <path d="M27.2728 146.057L16.8026 143.006" stroke="white" stroke-width="2.684"/>
    <path d="M21.6004 175.694L10.6992 174.404" stroke="white" stroke-width="2.684"/>
</svg>
