<svg width="202" height="194" viewBox="0 0 202 194" fill="none" xmlns="http://www.w3.org/2000/svg">
    <path d="M119.274 62.2547C123.529 59.7384 125.326 56.3728 125.326 52.6689C125.326 51.5844 125.48 0.49408 125.48 0.49408H74.8278C74.8278 0.49408 74.5897 52.0239 74.5897 52.6689C74.5897 56.4002 77.2335 59.7891 81.5469 62.3113C78.4961 62.7553 75.479 63.299 72.4956 63.9535C77.267 67.0028 81.774 70.5638 85.9433 74.6254C91.8514 80.3724 96.7395 86.7366 100.577 93.5988C104.414 86.7366 109.305 80.3723 115.208 74.6254C119.386 70.5638 123.896 66.9967 128.667 63.9476C125.616 63.2869 122.47 62.7521 119.324 62.2802L119.274 62.2547Z"
          fill="black" stroke="black" stroke-width="0.975"/>
    <path d="M165.868 178.377C162.734 172.094 162.648 163.878 164.04 158.33C165.465 152.621 178.987 141.819 178.987 141.819C202.807 118.65 208.26 85.6234 191.171 68.0557C174.077 50.4895 140.919 55.0413 117.1 78.2129C109.987 85.1349 104.531 92.9341 100.801 100.941C97.0739 92.9341 91.6114 85.135 84.5019 78.2129C60.6867 55.0413 27.5231 50.4896 10.4303 68.0557C-6.6567 85.6219 -1.20009 118.651 22.6139 141.819C23.6892 142.863 35.5595 152.621 36.9865 158.33C38.4105 164.032 38.6087 172.229 35.183 178.588H35.6976C35.6223 178.631 35.5486 178.659 35.4718 178.702C55.1808 188.423 77.362 193.892 100.819 193.892C124.258 193.86 146.123 188.071 165.849 178.35"
          fill="black"/>
    <path d="M38.9229 177.213C57.8916 168.361 78.8656 163.449 101.178 163.449C122.61 163.449 143.181 168.711 161.532 176.187"
          fill="black"/>
    <path d="M38.9229 177.213C57.8916 168.361 78.8656 163.449 101.178 163.449C122.61 163.449 143.181 168.711 161.532 176.187"
          stroke="white" stroke-width="3.1741" stroke-linecap="round"/>
    <path d="M170.65 140.466C150.894 133.762 126.686 129.812 100.529 129.812C74.1441 129.812 49.7452 133.836 29.8934 140.648"
          fill="black"/>
    <path d="M170.65 140.466C150.894 133.762 126.686 129.812 100.529 129.812C74.1441 129.812 49.7452 133.836 29.8934 140.648"
          stroke="white" stroke-width="3.1741" stroke-linecap="round"/>
    <path d="M121.35 4.17773L78.8466 42.2769H121.35L78.8466 4.17773H121.35Z" stroke="white" stroke-width="1.9503"
          stroke-linejoin="bevel"/>
    <path d="M158.285 163.716C140.094 157.329 120.74 152.696 100.665 152.696C80.2028 152.696 60.4923 157.458 42.0058 164.069"
          stroke="white" stroke-width="3.1741" stroke-linecap="round"/>
    <path d="M90.7075 142.291L100.681 147.262L110.654 142.291L100.681 137.289L90.7075 142.291Z" fill="white"
          stroke="black" stroke-width="0.9974"/>
    <path d="M49.9655 148.772L60.5993 152.075L69.6286 145.563L58.9948 142.228L49.9655 148.772Z" fill="white"
          stroke="black" stroke-width="0.9974"/>
    <path d="M151.427 148.772L140.762 152.075L131.732 145.563L142.366 142.228L151.427 148.772Z" fill="white"
          stroke="black" stroke-width="0.9974"/>
    <path d="M121.369 4.17773H78.8466V42.2769H121.369V4.17773Z" stroke="white" stroke-width="1.9503"
          stroke-linejoin="bevel"/>
    <path d="M100.46 72.8528C110.361 72.8528 118.387 66.9246 118.387 59.6119C118.387 52.2991 110.361 46.371 100.46 46.371C90.5594 46.371 82.5332 52.2991 82.5332 59.6119C82.5332 66.9246 90.5594 72.8528 100.46 72.8528Z"
          stroke="white" stroke-width="1.9503"/>
</svg>
