<svg width="132" height="198" viewBox="0 0 132 198" fill="none" xmlns="http://www.w3.org/2000/svg">
    <path d="M91.0568 168.379C79.259 144.959 80.4511 103.239 81.4374 87.0746C100.096 85.795 113.515 82.2617 113.515 78.0972C113.515 74.0095 100.599 70.5271 82.481 69.1906C94.0514 63.2272 101.969 51.1729 101.969 37.2609C101.969 17.4257 85.8974 1.34827 66.0626 1.34827C46.2278 1.34827 30.1562 17.4261 30.1562 37.2609C30.1562 51.1726 38.0769 63.2268 49.6441 69.1906C31.5295 70.5271 18.6073 74.0094 18.6073 78.0972C18.6073 82.2617 32.0336 85.795 50.688 87.0746C51.6773 103.241 52.8693 144.959 41.0716 168.379C17.949 173.027 1.72345 183.94 1.72345 196.651H130.398C130.398 183.94 114.196 173.024 91.0724 168.367L91.0568 168.379Z"
          fill="black" stroke="black" stroke-width="2.4843" stroke-linejoin="round"/>
</svg>
