<svg width="224" height="201" viewBox="0 0 224 201" fill="none" xmlns="http://www.w3.org/2000/svg">
    <path d="M220.852 53.7758C223.528 49.1825 221.982 43.29 217.389 40.6124C212.805 37.9333 206.912 39.4817 204.233 44.0733C201.935 48.0091 202.752 52.8925 205.92 55.8958C192.813 71.786 168.897 100.772 163.117 107.8C161.421 107.044 159.664 106.324 157.839 105.649C158.355 100.262 162.144 59.1156 164.156 37.2345C168.522 37.3344 172.547 34.4433 173.69 30.0328C175.02 24.8867 171.929 19.6375 166.786 18.3042C161.637 16.9739 156.389 20.0647 155.056 25.2092C153.916 29.6165 156.03 34.0975 159.898 36.1331C150.42 57.6395 132.029 99.3915 131.983 99.5646C131.974 99.6061 131.98 99.649 131.971 99.6904C130.299 99.4892 128.582 99.3156 126.837 99.1712C126.486 96.8577 118.6 48.4595 114.486 23.253C119.211 22.1485 122.735 17.9193 122.735 12.856C122.735 6.94955 117.948 2.16125 112.04 2.16125C106.138 2.16125 101.349 6.94965 101.349 12.856C101.349 17.9193 104.876 22.1484 109.601 23.253C105.508 48.345 97.6707 96.4153 97.2592 99.1304C95.4281 99.2748 93.6431 99.453 91.8948 99.6542C91.8825 99.5943 91.8856 99.5435 91.8672 99.4867C91.8242 99.3146 73.4298 57.5589 63.958 36.0522C67.8229 34.0229 69.9369 29.5404 68.7971 25.1299C67.4637 19.9867 62.2128 16.896 57.0668 18.228C51.9268 19.5599 48.833 24.8106 50.1663 29.9535C51.3092 34.3653 55.3308 37.255 59.6967 37.1537C61.706 59.0121 65.4821 100.072 66.0135 105.55C64.2192 106.199 62.4986 106.9 60.8274 107.634C54.821 100.333 31.1699 71.665 18.157 55.8999C21.3307 52.8967 22.1511 48.0134 19.8531 44.0776C17.1771 39.4859 11.2811 37.9373 6.69104 40.6165C2.10404 43.2941 0.555537 49.1869 3.23474 53.7801C5.52974 57.7111 10.1876 59.404 14.3628 58.1183C22.1881 78.4987 47.4471 144.095 48.4129 144.998H48.4221C48.4405 145.111 50.923 161.382 51.1965 166.777C51.4699 172.145 49.135 185.276 49.304 185.353V185.365C49.3071 185.365 49.31 185.359 49.3131 185.359C68.0452 194.131 89.3785 199.062 112.257 199.062C135.349 199.062 177.032 184.941 176.837 184.849C174.112 179.098 175.141 144.991 175.141 144.991C176.106 144.079 201.695 79.0335 209.726 58.1183C213.847 59.4082 218.503 57.7093 220.8 53.7767"
          fill="black"/>
    <path d="M220.852 53.7758C223.528 49.1825 221.982 43.29 217.389 40.6124C212.805 37.9333 206.912 39.4817 204.233 44.0733C201.935 48.0091 202.752 52.8925 205.92 55.8958C192.813 71.786 168.897 100.772 163.117 107.8C161.421 107.044 159.664 106.324 157.839 105.649C158.355 100.262 162.144 59.1156 164.156 37.2345C168.522 37.3344 172.547 34.4433 173.69 30.0328C175.02 24.8867 171.929 19.6375 166.786 18.3042C161.637 16.9739 156.389 20.0647 155.056 25.2092C153.916 29.6165 156.03 34.0975 159.898 36.1331C150.42 57.6395 132.029 99.3915 131.983 99.5646C131.974 99.6061 131.98 99.649 131.971 99.6904C130.299 99.4892 128.582 99.3156 126.837 99.1712C126.486 96.8577 118.6 48.4595 114.486 23.253C119.211 22.1485 122.735 17.9193 122.735 12.856C122.735 6.94955 117.948 2.16125 112.04 2.16125C106.138 2.16125 101.349 6.94965 101.349 12.856C101.349 17.9193 104.876 22.1484 109.601 23.253C105.508 48.345 97.6707 96.4153 97.2592 99.1304C95.4281 99.2748 93.6431 99.453 91.8948 99.6542C91.8825 99.5943 91.8856 99.5435 91.8672 99.4867C91.8242 99.3146 73.4298 57.5589 63.958 36.0522C67.8229 34.0229 69.9369 29.5404 68.7971 25.1299C67.4637 19.9867 62.2128 16.896 57.0668 18.228C51.9268 19.5599 48.833 24.8106 50.1663 29.9535C51.3092 34.3653 55.3308 37.255 59.6967 37.1537C61.706 59.0121 65.4821 100.072 66.0135 105.55C64.2192 106.199 62.4986 106.9 60.8274 107.634C54.821 100.333 31.1699 71.665 18.157 55.8999C21.3307 52.8967 22.1511 48.0134 19.8531 44.0776C17.1771 39.4859 11.2811 37.9373 6.69104 40.6165C2.10404 43.2941 0.555537 49.1869 3.23474 53.7801C5.52974 57.7111 10.1876 59.404 14.3628 58.1183C22.1881 78.4987 47.4471 144.095 48.4129 144.998H48.4221C48.4405 145.111 50.923 161.382 51.1965 166.777C51.4699 172.145 49.135 185.276 49.304 185.353V185.365C49.3071 185.365 49.31 185.359 49.3131 185.359C68.0452 194.131 89.3785 199.062 112.257 199.062C135.349 199.062 177.032 184.941 176.837 184.849C174.112 179.098 175.141 144.991 175.141 144.991C176.106 144.079 201.695 79.0335 209.726 58.1183C213.847 59.4082 218.503 57.7093 220.8 53.7767"
          stroke="black" stroke-width="2.684" stroke-linejoin="bevel"/>
    <path d="M53.9515 181.444C73.6482 173.327 92.0853 169.843 114.677 169.843C136.374 169.843 153.742 173.435 171.901 180.959"
          fill="black"/>
    <path d="M53.9515 181.444C73.6482 173.327 92.0853 169.843 114.677 169.843C136.374 169.843 153.742 173.435 171.901 180.959"
          stroke="white" stroke-width="2.9123" stroke-linecap="round"/>
    <path d="M168.155 143.408C152.132 137.251 132.503 133.629 111.298 133.629C89.9025 133.629 70.1162 137.316 54.0176 143.571"
          fill="black"/>
    <path d="M168.155 143.408C152.132 137.251 132.503 133.629 111.298 133.629C89.9025 133.629 70.1162 137.316 54.0176 143.571"
          stroke="white" stroke-width="2.9123" stroke-linecap="round"/>
    <path d="M170.074 170.213C152.34 164.354 134.287 160.101 113.96 160.101C93.2493 160.101 73.2906 164.476 54.5776 170.547"
          stroke="white" stroke-width="2.9123" stroke-linecap="round"/>
    <path d="M103.188 148.316L112.123 152.783L121.089 148.316L112.123 143.848L103.188 148.316Z" fill="white"/>
    <path d="M157.647 154.136L148.114 157.125L139.997 151.273L149.53 148.284L157.647 154.136Z" fill="white"/>
    <path d="M66.6302 154.136L76.1629 157.125L84.2798 151.273L74.7471 148.284L66.6302 154.136Z" fill="white"/>
</svg>
