<?xml version="1.0" encoding="iso-8859-1"?>
<!-- Generator: Adobe Illustrator 19.0.0, SVG Export Plug-In . SVG Version: 6.00 Build 0)  -->
<svg version="1.1" id="Layer_1" xmlns="http://www.w3.org/2000/svg" xmlns:xlink="http://www.w3.org/1999/xlink" x="0px" y="0px"
	 viewBox="0 0 512 512" style="enable-background:new 0 0 512 512;" xml:space="preserve">
<circle style="fill:#FFC61B;" cx="256" cy="256" r="256"/>
<path style="fill:#EAA22F;" d="M210.604,331.905l-26.536,9.83l28.806,28.806l-57.723,34.671l106.713,106.713
	c118.505-2.665,217.124-85.854,243.309-197.003L293.136,102.886l-40.881,120.639l-18.934-18.934l-18.046-0.362l32.504,32.504
	L210.604,331.905z"/>
<path style="fill:#386895;" d="M334,367.394c-44.908-63.293-52-208-52-208h-52c0,0-7.092,144.706-52,208H334z"/>
<g>
	<path style="fill:#273B7A;" d="M282,159.394h-26.574v208H334C289.092,304.1,282,159.394,282,159.394z"/>
	<circle style="fill:#273B7A;" cx="256" cy="133.396" r="48.061"/>
	<path style="fill:#273B7A;" d="M289.494,207.848h-66.988c-4.999,0-9.052-4.053-9.052-9.052v-0.805c0-4.999,4.053-9.052,9.052-9.052
		h66.988c4.999,0,9.052,4.053,9.052,9.052v0.805C298.546,203.795,294.493,207.848,289.494,207.848z"/>
	<path style="fill:#273B7A;" d="M321.395,344.371H190.607c-5.222,0-9.454-4.232-9.454-9.454l0,0c0-5.222,4.232-9.454,9.454-9.454
		h130.788c5.222,0,9.454,4.232,9.454,9.454l0,0C330.849,340.137,326.616,344.371,321.395,344.371z"/>
	<path style="fill:#273B7A;" d="M356.848,405.213H155.152v-22.154c0-14.743,11.952-26.695,26.695-26.695h148.306
		c14.743,0,26.695,11.952,26.695,26.695v22.154H356.848z"/>
</g>
<g>
	<path style="fill:#121149;" d="M256,85.333c-0.193,0-0.383,0.012-0.574,0.014v96.092c0.191,0.002,0.381,0.014,0.574,0.014
		c26.543,0,48.061-21.518,48.061-48.061S282.543,85.333,256,85.333z"/>
	<path style="fill:#121149;" d="M289.494,188.94h-34.068v18.91h34.068c4.999,0,9.052-4.053,9.052-9.052v-0.805
		C298.546,192.993,294.493,188.94,289.494,188.94z"/>
	<path style="fill:#121149;" d="M321.395,325.461h-65.969v18.91h65.969c5.222,0,9.454-4.232,9.454-9.454
		C330.849,329.695,326.616,325.461,321.395,325.461z"/>
	<path style="fill:#121149;" d="M356.848,383.059c0-14.743-11.952-26.695-26.695-26.695h-74.728v48.849h101.423V383.059z"/>
</g>
<g>
</g>
<g>
</g>
<g>
</g>
<g>
</g>
<g>
</g>
<g>
</g>
<g>
</g>
<g>
</g>
<g>
</g>
<g>
</g>
<g>
</g>
<g>
</g>
<g>
</g>
<g>
</g>
<g>
</g>
</svg>
