<svg width="235" height="218" viewBox="0 0 235 218" fill="none" xmlns="http://www.w3.org/2000/svg">
    <path d="M234.619 208.188C232.654 207.116 214.957 189.726 198.546 189.726C190.012 189.726 183.321 192.301 177.422 194.574C171.437 196.879 165.787 199.054 157.608 199.054C148.076 199.054 140.163 196.144 133.179 193.579C127.547 191.514 122.683 189.726 117.706 189.726C112.732 189.726 107.868 191.514 102.237 193.579C95.2549 196.144 87.3403 199.054 77.8086 199.054C69.6285 199.054 63.9784 196.879 57.9951 194.574C52.0946 192.301 45.4045 189.726 36.8726 189.726C20.4569 189.726 2.75952 207.116 0.796417 208.188C0.796417 208.188 7.94121 203.718 14.5898 203.718C21.24 203.718 26.9989 208.382 36.8736 208.382C41.9385 208.382 46.0662 209.97 51.2953 211.982C57.9194 214.535 66.1609 217.706 77.8096 217.706C90.6614 217.706 101.071 213.884 108.672 211.094C112.131 209.822 116.051 208.381 117.707 208.381C119.37 208.381 123.287 209.822 126.746 211.094C134.349 213.884 144.756 217.706 157.61 217.706C169.256 217.706 177.5 214.535 184.124 211.982C189.35 209.97 193.479 208.382 198.547 208.382C208.42 208.382 215.903 203.718 220.828 203.718C225.753 203.718 234.702 208.185 234.702 208.185L234.619 208.188Z"
          fill="#20201E"/>
    <path d="M77.5032 168.547C87.7849 164.117 99.6073 160.234 114.926 160.234C130.24 160.234 142.058 164.114 152.339 168.538C152.903 167.976 154.247 166.535 157.023 162.648C148.373 153.287 135.784 148.144 115.19 148.144C93.2161 148.144 81.2214 153.877 72.5727 163.25C74.3345 167.812 76.9772 167.97 77.5435 168.536L77.5032 168.547Z"
          fill="black" stroke="black" stroke-width="1.6765"/>
    <path d="M156.093 197.869C143.413 192.299 130.446 189.537 115.354 189.537C100.262 189.537 86.1343 192.609 73.4574 198.179C86.1339 203.756 100.025 206.994 115.118 206.994C130.219 206.994 143.433 203.439 156.111 197.87L156.093 197.869Z"
          fill="white" stroke="black" stroke-width="3.1886" stroke-linejoin="bevel"/>
    <path d="M155.746 163.671C163.732 150.325 174.237 125.153 161.109 82.3163C150.095 46.3754 117.643 11.3059 94.0378 19.0988C73.1012 26.0117 50.3103 75.5175 50.3103 101.489C50.3103 126.335 60.3737 147.739 71.9919 163.234L155.772 163.643L155.746 163.671Z"
          fill="black" stroke="black" stroke-width="1.6765"/>
    <path d="M102.389 19.093C107.246 19.093 111.183 15.1558 111.183 10.2991C111.183 5.44235 107.246 1.50519 102.389 1.50519C97.5321 1.50519 93.5949 5.44235 93.5949 10.2991C93.5949 15.1558 97.5321 19.093 102.389 19.093Z"
          fill="black" stroke="black" stroke-width="1.6765"/>
    <path d="M151.751 168.516L151.748 168.507C141.466 164.086 129.639 160.38 114.335 160.38C99.0174 160.38 87.2058 164.089 76.9212 168.516C76.9212 168.516 74.6169 183.488 74.3927 186.861C74.0471 192.047 73.5263 198.173 73.5263 198.173C86.2012 192.603 100.333 189.531 115.42 189.531C130.222 189.531 143.662 192.492 156.158 197.863C155.708 193.718 155.189 189.577 154.154 183.355C153.587 180.083 151.731 168.474 151.731 168.474L151.751 168.516Z"
          fill="black" stroke="black" stroke-width="1.6765" stroke-linejoin="bevel"/>
    <path d="M151.373 188.588C139.976 185.049 127.809 183.104 115.253 183.104C102.484 183.104 89.4347 185.184 77.7297 188.858"
          stroke="white" stroke-width="1.6765" stroke-linecap="round" stroke-linejoin="bevel"/>
    <path d="M80.1774 167.163C89.7003 163.329 100.619 160.21 114.344 160.21C128.142 160.21 139.099 163.363 148.658 167.221"
          stroke="white" stroke-width="1.6765" stroke-linecap="round"/>
    <path d="M154.866 160.399C142.777 150.731 133.104 148.14 115.203 148.14C100.21 148.14 84.739 152.11 77.3271 158.9"
          stroke="white" stroke-width="1.6765" stroke-linecap="round"/>
    <path d="M136.209 85.1446L132.119 89.266H111.418V70.5782L115.54 66.4568L107.234 58.1512L98.9281 66.4568L103.081 70.6096V89.266H82.2538L78.1325 85.1446L69.8268 93.4503L78.1325 101.756L82.3168 97.6031H103.081V120.381L98.9281 124.534L107.234 132.839L115.54 124.534L111.418 120.412V97.6031H132.056L136.209 101.756L144.515 93.4503L136.209 85.1446Z"
          fill="white" stroke="black" stroke-width="1.6765"/>
</svg>
