<svg width="224" height="202" viewBox="0 0 224 202" fill="none" xmlns="http://www.w3.org/2000/svg">
    <path d="M176.296 185.593C157.211 176.669 136.294 171.984 113.201 171.984C90.1091 171.984 67.7247 177.099 48.0112 186.025C67.0966 194.941 88.7468 199.961 111.842 199.961C134.966 199.992 156.611 194.518 176.306 185.615L176.296 185.593Z"
          fill="white" stroke="#20201E" stroke-width="3.4947" stroke-linejoin="bevel"/>
    <path d="M174.88 145.543L174.868 145.522C157.712 138.449 137.751 134.146 111.833 134.146C85.8841 134.146 65.8214 138.452 48.1624 145.543C48.1624 145.543 50.0888 161.914 50.1686 167.328C50.2638 173.425 48.5587 185.919 48.5587 185.919C68.2708 176.994 90.1185 171.976 113.211 171.976C135.86 171.976 158.879 176.625 176.306 185.585C173.443 179.86 174.89 145.567 174.89 145.567L174.88 145.543Z"
          fill="white" stroke="#20201E" stroke-width="3.4947" stroke-linejoin="bevel"/>
    <path d="M48.6279 185.813C67.1819 176.989 90.1185 171.975 113.211 171.975C135.86 171.975 154.875 175.169 176.306 185.584C175.442 183.177 174.865 175.699 174.677 172.986C155.709 165.939 134.788 161.939 113.256 161.939C91.4855 161.939 69.5821 166.158 49.9316 173.349C49.5226 176.149 48.6417 185.776 48.6417 185.776L48.6279 185.813Z"
          fill="white" stroke="#20201E" stroke-width="3.4947" stroke-linejoin="bevel"/>
    <path d="M217.447 41.1716C212.86 38.4925 206.967 40.041 204.288 44.6342C201.987 48.57 202.807 53.4518 205.975 56.4582C192.868 72.3453 168.945 101.331 163.172 108.362C161.476 107.605 159.719 106.886 157.891 106.215C158.41 100.823 162.198 59.6778 164.208 37.7936C168.573 37.8934 172.601 35.0024 173.741 30.595C175.071 25.4474 171.984 20.1965 166.835 18.8648C161.695 17.5329 156.444 20.6237 155.11 25.7683C153.967 30.1772 156.084 34.6598 159.952 36.689C150.474 58.2016 132.083 99.9506 132.037 100.124C132.028 100.165 132.034 100.208 132.025 100.251C130.354 100.053 128.636 99.8763 126.885 99.7319C126.538 97.4169 118.651 49.0201 114.54 23.8136C119.266 22.7076 122.783 18.4785 122.783 13.4151C122.783 7.513 118 2.7218 112.095 2.7218C106.189 2.7218 101.403 7.5133 101.403 13.4151C101.403 18.4784 104.93 22.7074 109.652 23.8136C105.56 48.9071 97.7224 96.9759 97.3109 99.691C95.4828 99.8385 93.6947 100.012 91.9496 100.218C91.9373 100.157 91.9404 100.104 91.922 100.049C91.879 99.8753 73.4846 58.121 64.0127 36.6111C67.8746 34.5833 69.9884 30.1025 68.8486 25.6904C67.5182 20.5459 62.2644 17.4549 57.1215 18.7869C51.9786 20.119 48.8876 25.3695 50.2209 30.5124C51.3638 34.9257 55.3855 37.8138 59.7513 37.7125C61.7606 59.5722 65.5366 100.631 66.0681 106.108C64.2738 106.763 62.5473 107.462 60.8821 108.198C54.8755 100.892 31.2246 72.2253 18.2117 56.4603C21.3854 53.454 22.2028 48.5721 19.9076 44.6363C17.2316 40.043 11.3357 38.4945 6.74559 41.1737C2.15859 43.8512 0.606908 49.744 3.28301 54.3372C5.58421 58.2698 10.2419 59.9611 14.4173 58.6769C22.2426 79.0573 47.5016 144.65 48.4674 145.556C65.8785 138.47 85.8996 134.159 111.842 134.159C137.773 134.159 157.788 138.465 175.201 145.55C176.16 144.642 201.752 79.589 209.78 58.6769C213.958 59.9611 218.613 58.2698 220.911 54.3372C223.491 49.7471 221.949 43.8544 217.356 41.1771L217.447 41.1716Z"
          fill="white" stroke="#20201E" stroke-width="3.4947"/>
    <path d="M103.244 148.658L112.179 153.125L121.145 148.658L112.179 144.19L103.244 148.658Z" fill="black"/>
    <path d="M66.6865 154.447L76.2191 157.404L84.3359 151.552L74.8033 148.595L66.6865 154.447Z" fill="black"/>
    <path d="M157.703 154.478L148.17 157.467L140.053 151.615L149.586 148.626L157.703 154.478Z" fill="black"/>
</svg>
