<svg width="163" height="212" viewBox="0 0 163 212" fill="none" xmlns="http://www.w3.org/2000/svg">
    <path d="M156.21 210.193C158.945 210.193 161.155 207.981 161.155 205.246V193.624C161.155 190.889 158.945 188.679 156.21 188.679H7.34351C4.61071 188.679 2.3985 190.889 2.3985 193.624V205.246C2.3985 207.981 4.61051 210.193 7.34351 210.193H156.21Z"
          fill="white" stroke="#20201E" stroke-width="3.4947"/>
    <path d="M153.162 170.363H10.3952V188.683H153.162V170.363Z" fill="white" stroke="#20201E" stroke-width="3.4947"/>
    <path d="M153.162 170.363L138.482 153.909H25.0748L10.3952 170.363H153.162Z" fill="white" stroke="#20201E"
          stroke-width="3.4947" stroke-linejoin="bevel"/>
    <path d="M157.635 38.6335L138.482 56.9563H25.0748L5.85864 38.6335H157.635Z" fill="white" stroke="#20201E"
          stroke-width="3.4947" stroke-linejoin="round"/>
    <path d="M138.331 56.9564H25.0749V153.919H138.331V56.9564Z" fill="white" stroke="#20201E" stroke-width="3.4947"/>
    <path d="M152.97 2.49133H126.554V19.4783L111.73 24.3881L98.0607 19.4783V2.49133H65.4987V19.4783L51.8299 24.3881L37.0043 19.4783V2.49133H10.5881C7.97663 2.49133 5.8598 4.70342 5.8598 7.43322V38.6868H157.703V7.43322C157.7 4.70242 155.582 2.49072 152.971 2.49072L152.97 2.49133Z"
          fill="white" stroke="#20201E" stroke-width="3.4947" stroke-linecap="square"/>
</svg>
