<svg width="134" height="200" viewBox="0 0 134 200" fill="none" xmlns="http://www.w3.org/2000/svg">
    <path d="M92.0568 169.366C80.259 145.942 81.4511 104.223 82.4374 88.0615C101.096 86.7819 114.515 83.247 114.515 79.0825C114.515 74.9948 101.599 71.5108 83.481 70.1759C95.0514 64.2141 102.969 52.1567 102.969 38.2431C102.969 18.4111 86.8974 2.33362 67.0626 2.33362C47.2278 2.33362 31.1562 18.4114 31.1562 38.2431C31.1562 52.1564 39.0705 64.2138 50.6441 70.1759C32.5295 71.5108 19.6073 74.9948 19.6073 79.0825C19.6073 83.247 33.0336 86.7819 51.688 88.0615C52.6773 104.224 53.8693 145.943 42.0716 169.366C18.949 174.014 2.72345 184.924 2.72345 197.636H131.398C131.398 184.926 115.196 174.009 92.0724 169.353L92.0568 169.366Z"
          fill="white" stroke="black" stroke-width="3.4947" stroke-linejoin="round"/>
</svg>
