<svg width="205" height="199" viewBox="0 0 205 199" fill="none" xmlns="http://www.w3.org/2000/svg">
    <path d="M127.566 2.87012H76.9172V55.8031C76.9172 63.596 88.3154 69.9205 102.369 69.9205C116.431 69.9205 127.467 63.5962 127.467 55.8031C127.467 55.1141 127.561 2.87012 127.561 2.87012H127.566Z"
          fill="white" stroke="#20201E" stroke-width="3.809"/>
    <path d="M127.563 2.87012H76.914V48.2556H127.563V2.87012Z" fill="white" stroke="#20201E" stroke-width="3.809"/>
    <path d="M76.914 2.87012L127.566 48.2524" stroke="#20201E" stroke-width="3.809"/>
    <path d="M127.566 2.87012L76.914 48.2524" stroke="#20201E" stroke-width="3.809"/>
    <path d="M167.647 180.609C147.941 170.885 126.522 165.772 103.061 165.772C79.6008 165.772 57.1661 171.224 37.4558 180.946C57.1664 190.67 79.2201 196.27 102.677 196.27C126.147 196.301 147.95 190.355 167.644 180.634L167.647 180.609Z"
          fill="white" stroke="#20201E" stroke-width="3.809" stroke-linejoin="round"/>
    <path d="M177.495 147.26C178.625 146.271 179.747 145.258 180.846 144.191C204.663 121.017 210.12 87.992 193.031 70.4274C175.937 52.8612 142.779 57.413 118.963 80.5846C111.847 87.5051 106.388 95.3074 102.661 103.312C98.9373 95.3074 93.4748 87.5051 86.3621 80.5846C62.5468 57.413 29.3801 52.8613 12.2937 70.4274C-4.79928 87.992 0.655731 121.02 24.4757 144.191C25.5787 145.261 26.7047 146.278 27.843 147.268C48.4077 139.545 74.402 134.931 102.679 134.931C130.931 134.931 156.918 139.555 177.462 147.263L177.495 147.26Z"
          fill="white" stroke="#20201E" stroke-width="3.809" stroke-linejoin="bevel"/>
    <path d="M102.681 103.341C106.407 95.3341 111.867 87.5334 118.982 80.6161C124.78 74.9692 131.14 70.4372 137.687 67.0533C126.829 63.9994 115.038 62.3235 102.699 62.3235C90.3545 62.3235 78.5503 64.0041 67.6895 67.0628C74.2274 70.4455 80.5841 74.974 86.3817 80.6165C93.4919 87.5379 98.9346 95.3402 102.678 103.331L102.681 103.341Z"
          fill="white" stroke="#20201E" stroke-width="3.809"/>
    <path d="M177.211 147.26L177.199 147.243C156.645 139.53 130.665 134.923 102.413 134.923C74.137 134.923 48.1433 139.538 27.5805 147.26C27.5805 147.26 37.4441 154.986 38.8715 160.692C40.2971 166.395 40.9085 174.573 37.4813 180.931C57.1891 171.209 79.6264 165.757 103.087 165.757C126.099 165.757 148.252 171.218 167.673 180.593C164.539 174.315 164.533 166.238 165.922 160.692C167.337 155.029 177.216 147.29 177.216 147.29L177.211 147.26Z"
          fill="white" stroke="#20201E" stroke-width="3.809" stroke-linejoin="bevel"/>
    <path d="M37.462 180.955C57.1697 171.232 79.607 165.78 103.067 165.78C126.079 165.78 148.23 171.241 167.654 180.617C166.32 177.934 164.919 171.085 165.143 167.264C145.622 159.59 124.628 155.394 102.757 155.394C80.6326 155.394 59.416 159.677 39.7088 167.513C39.9605 174.592 38.9537 178.147 37.4751 180.915L37.462 180.955Z"
          fill="white" stroke="#20201E" stroke-width="3.809" stroke-linejoin="bevel"/>
    <path d="M93.0535 145.435L102.806 150.312L112.528 145.435L102.806 140.559L93.0535 145.435Z" fill="black"/>
    <path d="M53.1925 151.79L63.5746 155.031L72.4152 148.644L62.033 145.404L53.1925 151.79Z" fill="black"/>
    <path d="M152.389 151.79L142.007 155.031L133.166 148.644L143.548 145.404L152.389 151.79Z" fill="black"/>
    <path d="M102.68 76.2817C112.583 76.2817 120.611 70.3542 120.611 63.0423C120.611 55.7303 112.583 49.8029 102.68 49.8029C92.7779 49.8029 84.7503 55.7303 84.7503 63.0423C84.7503 70.3542 92.7779 76.2817 102.68 76.2817Z"
          fill="white" stroke="#20201E" stroke-width="3.809"/>
</svg>
