<svg width="217" height="205" viewBox="0 0 217 205" fill="none" xmlns="http://www.w3.org/2000/svg">
    <path d="M161.262 26.0919C161.262 26.0919 157.771 7.33677 157.771 4.72047C157.771 2.10417 155.158 1.66657 152.539 5.15677C149.921 8.64547 138.147 25.6555 138.147 25.6555L161.239 26.0897L161.262 26.0919Z"
          fill="white" stroke="#20201E" stroke-width="3.4947"/>
    <path d="M4.77823 169.95C5.96113 161.492 7.5802 153.428 9.548 145.763L15.8679 143.24L11.6496 138.193C14.0522 130.084 16.8467 122.45 19.9172 115.273L25.8976 113.583L22.9405 108.526C26.1527 101.701 29.6045 95.3347 33.1854 89.4065L38.7618 88.2866L36.7617 83.6826C40.7789 77.4857 44.905 71.8262 48.9987 66.6893L54.9008 66.0426L53.3247 61.4465C58.1146 55.821 62.7831 50.9282 67.0995 46.7483L73.0032 46.4165L71.9709 42.1875C82.4999 32.6602 89.9395 28.0238 89.9395 28.0238L103.315 32.0961C103.315 32.0961 109.71 28.6058 114.946 25.1171C114.946 25.1171 118.433 13.4866 119.594 7.08997C120.76 0.693374 124.247 3.59968 125.41 5.34488C126.576 7.08998 138.641 20.4625 138.641 20.4625C138.641 20.4625 145.859 19.4763 151 20.4625C158.556 21.9203 162.046 27.0067 170.773 35.2928C177.132 41.3377 180.947 46.636 183.127 52.3028C185.307 57.9727 182.693 57.9727 183.562 63.2065C184.439 68.4403 207.989 107.692 210.602 112.49C213.224 117.287 219.542 131.96 207.116 141.275C203.629 143.892 201.009 145.204 198.832 146.072C198.832 146.072 195.34 145.204 194.034 143.459C193.801 143.147 193.681 142.957 193.624 142.851C193.583 142.734 193.56 142.727 193.624 142.851C193.758 143.19 194.062 144.465 192.724 146.072C190.542 148.691 187.742 148.496 186.183 148.691C183.856 148.983 179.64 146.949 176.15 141.712C172.66 136.479 170.48 134.732 167.861 131.68C165.248 128.627 150.812 121.873 145.18 112.49C143.873 110.313 140.821 111.181 138.641 112.927C136.461 114.673 124.247 115.11 119.016 106.383C119.016 106.383 116.541 129.328 126.866 145.203C143.873 171.372 172.661 177.91 181.388 202.339H2.49161C2.49161 193.898 2.93713 185.793 3.74213 177.997L9.68851 174.86L4.70822 170.015L4.77823 169.95Z"
          fill="white" stroke="#20201E" stroke-width="3.4947"/>
    <path d="M96.9241 37.9211C96.9241 37.9211 20.751 94.9157 20.751 197.843" stroke="#20201E" stroke-width="2.684"/>
    <path d="M193.635 142.862C193.572 142.736 193.572 142.736 193.635 142.862V142.862Z" stroke="#20201E"
          stroke-width="2.684"/>
    <path d="M112.623 77.455C111.17 93.7338 118.731 105.364 119.021 106.381C119.021 106.381 100.699 96.9337 98.9574 84.4277"
          stroke="#20201E" stroke-width="2.684"/>
    <path d="M119.01 106.399C119.01 106.399 106.794 112.364 97.7826 108.583" stroke="#20201E" stroke-width="2.684"/>
    <path d="M194.044 143.46C194.044 143.46 185.901 132.991 183.572 128.194" stroke="#20201E" stroke-width="2.684"/>
    <path d="M143.864 46.2112C143.864 46.2112 157.275 46.2742 161.748 53.6234C167.851 63.6563 160.876 64.9635 160.876 64.9635C160.876 64.9635 153.898 67.1464 149.099 60.604C143.991 53.6373 148.227 49.2639 148.227 49.2639L143.885 46.209L143.864 46.2112Z"
          stroke="#20201E" stroke-width="2.684"/>
    <path d="M208.862 120.777C204.06 119.469 201.009 119.907 198.832 121.214C198.832 121.214 201.009 114.672 197.087 109C193.158 103.33 186.618 102.893 180.948 91.9904"
          stroke="#20201E" stroke-width="2.684"/>
    <path d="M81.5082 52.3145L73.234 47.0825" stroke="#20201E" stroke-width="2.684"/>
    <path d="M64.4973 71.0684L56.2074 67.1452" stroke="#20201E" stroke-width="2.684"/>
    <path d="M49.2357 92.8394L39.6401 88.9068" stroke="#20201E" stroke-width="2.684"/>
    <path d="M37.0194 117.725L26.9897 114.233" stroke="#20201E" stroke-width="2.684"/>
    <path d="M27.427 146.952L16.9568 143.9" stroke="#20201E" stroke-width="2.684"/>
    <path d="M21.7546 176.62L10.8533 175.298" stroke="#20201E" stroke-width="2.684"/>
</svg>
